<?xml version="1.0" encoding="iso-8859-1"?>
<!-- Generator: Adobe Illustrator 19.0.0, SVG Export Plug-In . SVG Version: 6.00 Build 0)  -->
<svg version="1.1" id="Capa_1" xmlns="http://www.w3.org/2000/svg" xmlns:xlink="http://www.w3.org/1999/xlink" x="0px" y="0px"
	 viewBox="0 0 512 512" style="enable-background:new 0 0 512 512;" xml:space="preserve">
<path style="fill:#DCD2CD;" d="M478.324,256c0,114.413-86.442,208.649-197.572,220.966c-8.132,0.892-16.382,1.358-24.752,1.358
	c-122.782,0-222.324-99.542-222.324-222.324c0-106.64,75.093-195.757,175.287-217.334c15.165-3.272,30.894-4.99,47.037-4.99
	c8.371,0,16.621,0.468,24.752,1.358c99.672,11.045,179.483,87.986,194.887,186.288v0.077
	C477.41,232.672,478.324,244.227,478.324,256z"/>
<path style="fill:#EBE1DC;" d="M476.4,239.9c0,114.413-86.442,208.649-197.572,220.966C167.699,448.549,81.256,354.313,81.256,239.9
	c0-88.943,52.244-165.688,127.707-201.236c15.165-3.272,30.894-4.99,47.037-4.99c8.371,0,16.621,0.468,24.752,1.358
	c99.672,11.045,179.483,87.986,194.887,186.288v0.077C476.139,227.498,476.4,233.672,476.4,239.9z"/>
<path style="fill:#FB5858;" d="M421.317,392.743c-8.612,10.395-18.179,19.962-28.574,28.574l-302.06-302.06
	c8.612-10.395,18.179-19.962,28.574-28.574L421.317,392.743z"/>
<path style="fill:#F29500;" d="M279.682,409.074L260.9,427.857c-22.301,22.301-58.459,22.301-80.76,0L94.46,342.178
	c-22.301-22.301-22.301-58.459,0-80.76l18.783-18.783c22.301-22.301,58.459-22.301,80.76,0l85.679,85.679
	C301.983,350.616,301.983,386.773,279.682,409.074z"/>
<path style="fill:#D63030;" d="M314.994,433.81c-0.934,7.206-4.175,14.172-9.682,19.679c-13.322,13.332-35.13,13.332-48.452,0
	L68.823,265.462c-13.322-13.332-13.322-35.14,0-48.462c5.685-5.675,12.902-8.927,20.35-9.755c1.29-0.157,2.58-0.231,3.881-0.231
	c8.78,0,17.56,3.325,24.231,9.986l188.027,188.038C313.127,412.852,316.368,423.583,314.994,433.81z"/>
<path style="fill:#F44545;" d="M314.994,433.81c-10.028,1.133-20.465-2.129-28.102-9.766L98.854,236.007
	c-7.815-7.815-11.046-18.535-9.682-28.763c1.29-0.157,2.58-0.231,3.881-0.231c8.78,0,17.56,3.325,24.231,9.986l188.027,188.038
	C313.127,412.852,316.368,423.583,314.994,433.81z"/>
<polygon style="fill:#40C1FA;" points="188.1,241.891 201.38,339.089 211.283,411.478 223.346,499.633 328.103,499.633 
	349.326,491.573 360.508,411.257 370.557,339.099 384.1,241.891 "/>
<g>
	<path style="fill:#93DCFC;" d="M349.326,491.573l11.182-80.316l10.049-72.158l13.542-97.208H235.587l13.29,97.197l9.902,72.389
		l12.053,88.155h57.27C328.103,499.633,349.149,491.634,349.326,491.573z"/>
	<path style="fill:#93DCFC;" d="M282.967,252.781c-1.041,0-2.097-0.137-3.149-0.427c-6.323-1.735-10.042-8.267-8.307-14.59
		l24.978-91.019c0.999-3.641,3.669-6.589,7.193-7.941l76.271-29.284c6.123-2.354,12.988,0.707,15.339,6.827
		c2.351,6.122-0.706,12.989-6.827,15.339l-70.667,27.133l-23.39,85.229C292.961,249.319,288.18,252.781,282.967,252.781z"/>
</g>
<path style="fill:#07A9F0;" d="M393.34,265.944H179.792c-6.923,0-12.588-5.664-12.588-12.588v-22.92
	c0-6.923,5.664-12.588,12.588-12.588H393.34c6.923,0,12.588,5.664,12.588,12.588v22.92
	C405.928,260.28,400.263,265.944,393.34,265.944z"/>
<path style="fill:#FB5858;" d="M256,0C114.61,0,0,114.61,0,256s114.61,256,256,256s256-114.61,256-256S397.39,0,256,0z M256,41.466
	c118.481,0,214.534,96.054,214.534,214.534c0,51.976-18.472,99.62-49.217,136.743l-302.06-302.06
	C156.38,59.938,204.024,41.466,256,41.466z M256,470.534c-118.481,0-214.534-96.054-214.534-214.534
	c0-51.976,18.472-99.62,49.217-136.743l302.06,302.06C355.62,452.062,307.976,470.534,256,470.534z"/>
<g>
</g>
<g>
</g>
<g>
</g>
<g>
</g>
<g>
</g>
<g>
</g>
<g>
</g>
<g>
</g>
<g>
</g>
<g>
</g>
<g>
</g>
<g>
</g>
<g>
</g>
<g>
</g>
<g>
</g>
</svg>
