<svg id="Capa_1" enable-background="new 0 0 510 510" height="512" viewBox="0 0 510 510" width="512" xmlns="http://www.w3.org/2000/svg" xmlns:xlink="http://www.w3.org/1999/xlink"><linearGradient id="lg1"><stop offset="0" stop-color="#3fa9f5"/><stop offset="1" stop-color="#666ad6"/></linearGradient><linearGradient id="SVGID_1_" gradientUnits="userSpaceOnUse" x1="204.731" x2="334.909" xlink:href="#lg1" y1="338.324" y2="759.343"/><linearGradient id="lg2"><stop offset="0" stop-color="#3b8eac" stop-opacity="0"/><stop offset="1" stop-color="#343168"/></linearGradient><linearGradient id="SVGID_2_" gradientUnits="userSpaceOnUse" x1="301.051" x2="80.448" xlink:href="#lg2" y1="471.297" y2="194.463"/><linearGradient id="SVGID_3_" gradientUnits="userSpaceOnUse" x1="358.773" x2="358.773" xlink:href="#lg2" y1="454.794" y2="647.653"/><linearGradient id="SVGID_4_" gradientUnits="userSpaceOnUse" x1="383.571" x2="207.665" xlink:href="#lg2" y1="465.836" y2="462.129"/><linearGradient id="lg3"><stop offset="0" stop-color="#a34a9e"/><stop offset="1" stop-color="#343168"/></linearGradient><linearGradient id="SVGID_5_" gradientUnits="userSpaceOnUse" x1="249.58" x2="296.543" xlink:href="#lg3" y1="460.876" y2="531.32"/><linearGradient id="SVGID_6_" gradientUnits="userSpaceOnUse" x1="152.712" x2="242.924" xlink:href="#lg1" y1="408.93" y2="499.142"/><linearGradient id="SVGID_7_" gradientTransform="matrix(-1 0 0 1 408.649 0)" gradientUnits="userSpaceOnUse" x1="51.362" x2="141.574" xlink:href="#lg1" y1="408.93" y2="499.142"/><linearGradient id="lg4"><stop offset="0" stop-color="#fccece"/><stop offset="1" stop-color="#fba5c2"/></linearGradient><linearGradient id="SVGID_8_" gradientUnits="userSpaceOnUse" x1="118.364" x2="181.51" xlink:href="#lg4" y1="207.933" y2="279.521"/><linearGradient id="lg5"><stop offset="0" stop-color="#fccece" stop-opacity="0"/><stop offset="1" stop-color="#bb4966"/></linearGradient><linearGradient id="SVGID_9_" gradientUnits="userSpaceOnUse" x1="121.161" x2="175.54" xlink:href="#lg5" y1="245.987" y2="190.785"/><linearGradient id="SVGID_10_" gradientTransform="matrix(-1 0 0 1 323 0)" gradientUnits="userSpaceOnUse" x1="-68.636" x2="-5.491" xlink:href="#lg4" y1="207.933" y2="279.521"/><linearGradient id="SVGID_11_" gradientTransform="matrix(-1 0 0 1 323 0)" gradientUnits="userSpaceOnUse" x1="-65.839" x2="-11.46" xlink:href="#lg5" y1="245.987" y2="190.785"/><linearGradient id="SVGID_12_" gradientUnits="userSpaceOnUse" x1="418.089" x2="285.851" xlink:href="#lg5" y1="263.639" y2="175.068"/><linearGradient id="SVGID_13_" gradientUnits="userSpaceOnUse" x1="185.832" x2="416.94" xlink:href="#lg4" y1="163.882" y2="425.886"/><linearGradient id="SVGID_14_" gradientUnits="userSpaceOnUse" x1="255" x2="255" y1="126" y2="321.333"><stop offset="0" stop-color="#3b8eac"/><stop offset="1" stop-color="#fba5c2" stop-opacity="0"/></linearGradient><linearGradient id="lg6"><stop offset="0" stop-color="#c69c6d"/><stop offset=".3092" stop-color="#b88e61"/><stop offset=".8908" stop-color="#946a40"/><stop offset="1" stop-color="#8c6239"/></linearGradient><linearGradient id="SVGID_15_" gradientUnits="userSpaceOnUse" x1="225.965" x2="254.947" xlink:href="#lg6" y1="204.692" y2="341.7"/><linearGradient id="SVGID_16_" gradientUnits="userSpaceOnUse" x1="255" x2="255" xlink:href="#lg5" y1="234.391" y2="375"/><linearGradient id="SVGID_17_" gradientUnits="userSpaceOnUse" x1="185.149" x2="255.993" xlink:href="#lg6" y1="14.039" y2="132.807"/><linearGradient id="lg7"><stop offset="0" stop-color="#603813" stop-opacity="0"/><stop offset="1" stop-color="#42210b"/></linearGradient><linearGradient id="SVGID_18_" gradientUnits="userSpaceOnUse" x1="275.186" x2="257.266" xlink:href="#lg7" y1="80.859" y2="245.229"/><linearGradient id="SVGID_19_" gradientUnits="userSpaceOnUse" x1="138.373" x2="128.251" xlink:href="#lg7" y1="97.468" y2="190.306"/><linearGradient id="SVGID_20_" gradientUnits="userSpaceOnUse" x1="387.692" x2="374.098" xlink:href="#lg7" y1="109.818" y2="137.625"/><linearGradient id="SVGID_21_" gradientUnits="userSpaceOnUse" x1="193.711" x2="193.711" xlink:href="#lg6" y1="150.801" y2="207.788"/><linearGradient id="SVGID_22_" gradientUnits="userSpaceOnUse" x1="316.289" x2="316.289" xlink:href="#lg6" y1="150.801" y2="207.788"/><linearGradient id="SVGID_23_" gradientUnits="userSpaceOnUse" x1="339.515" x2="283.765" y1="414.455" y2="389.205"><stop offset="0" stop-color="#a2e3e9" stop-opacity="0"/><stop offset="1" stop-color="#518cd2"/></linearGradient><linearGradient id="SVGID_24_" gradientUnits="userSpaceOnUse" x1="296.058" x2="323.15" xlink:href="#lg3" y1="207.181" y2="241.229"/><linearGradient id="SVGID_25_" gradientTransform="matrix(-1 0 0 1 632.108 0)" gradientUnits="userSpaceOnUse" x1="418.401" x2="445.493" xlink:href="#lg3" y1="207.181" y2="241.229"/><linearGradient id="lg8"><stop offset="0" stop-color="#c4f8b6"/><stop offset="1" stop-color="#3b8eac"/></linearGradient><linearGradient id="SVGID_26_" gradientUnits="userSpaceOnUse" x1="401.244" x2="414.577" xlink:href="#lg8" y1="167.386" y2="204.719"/><linearGradient id="SVGID_27_" gradientUnits="userSpaceOnUse" x1="101.244" x2="114.577" xlink:href="#lg8" y1="162.167" y2="199.501"/><linearGradient id="SVGID_28_" gradientUnits="userSpaceOnUse" x1="405.188" x2="412.777" xlink:href="#lg8" y1="139.774" y2="161.022"/><linearGradient id="SVGID_29_" gradientUnits="userSpaceOnUse" x1="86.402" x2="93.99" xlink:href="#lg8" y1="194.588" y2="215.836"/><linearGradient id="SVGID_30_" gradientUnits="userSpaceOnUse" x1="436.017" x2="443.605" xlink:href="#lg8" y1="185.316" y2="206.564"/><linearGradient id="SVGID_31_" gradientUnits="userSpaceOnUse" x1="255" x2="255" xlink:href="#lg7" y1="321.5" y2="392.195"/><linearGradient id="SVGID_32_" gradientUnits="userSpaceOnUse" x1="255.007" x2="255.007" xlink:href="#lg8" y1="281.444" y2="390.681"/><linearGradient id="SVGID_33_" gradientUnits="userSpaceOnUse" x1="255" x2="255" xlink:href="#lg8" y1="384.5" y2="519.642"/><linearGradient id="lg9"><stop offset="0" stop-color="#3b8eac" stop-opacity="0"/><stop offset=".174" stop-color="#3a87a7" stop-opacity=".174"/><stop offset=".4275" stop-color="#397499" stop-opacity=".428"/><stop offset=".7282" stop-color="#375481" stop-opacity=".728"/><stop offset="1" stop-color="#343168"/></linearGradient><linearGradient id="SVGID_34_" gradientUnits="userSpaceOnUse" x1="255" x2="255" xlink:href="#lg9" y1="426" y2="532"/><linearGradient id="lg10"><stop offset="0" stop-color="#ffe548"/><stop offset="1" stop-color="#c4f8b6" stop-opacity="0"/></linearGradient><linearGradient id="SVGID_35_" gradientUnits="userSpaceOnUse" x1="174.648" x2="279.981" xlink:href="#lg10" y1="419.21" y2="446.544"/><linearGradient id="SVGID_36_" gradientUnits="userSpaceOnUse" x1="259.444" x2="123.944" xlink:href="#lg9" y1="438.097" y2="535.097"/><linearGradient id="SVGID_37_" gradientUnits="userSpaceOnUse" x1="259.072" x2="294.572" xlink:href="#lg9" y1="449.71" y2="523.21"/><linearGradient id="SVGID_38_" gradientUnits="userSpaceOnUse" x1="273.742" x2="182.742" xlink:href="#lg9" y1="439.649" y2="418.149"/><linearGradient id="SVGID_39_" gradientUnits="userSpaceOnUse" x1="310.601" x2="264.601" xlink:href="#lg10" y1="417.396" y2="439.896"/><linearGradient id="lg11"><stop offset="0" stop-color="#ffe548"/><stop offset=".0603" stop-color="#f8e755"/><stop offset=".2422" stop-color="#e5ed78"/><stop offset=".4269" stop-color="#d7f293"/><stop offset=".6135" stop-color="#ccf5a7"/><stop offset=".803" stop-color="#c6f7b2"/><stop offset="1" stop-color="#c4f8b6"/></linearGradient><linearGradient id="SVGID_40_" gradientUnits="userSpaceOnUse" x1="216.765" x2="225.186" xlink:href="#lg11" y1="407.841" y2="423.918"/><linearGradient id="SVGID_41_" gradientUnits="userSpaceOnUse" x1="220.455" x2="226.069" xlink:href="#lg11" y1="386.046" y2="399.061"/><linearGradient id="SVGID_42_" gradientUnits="userSpaceOnUse" x1="243.959" x2="248.552" xlink:href="#lg11" y1="418.514" y2="432.04"/><linearGradient id="SVGID_43_" gradientUnits="userSpaceOnUse" x1="271.516" x2="279.937" xlink:href="#lg11" y1="470.507" y2="486.584"/><linearGradient id="SVGID_44_" gradientUnits="userSpaceOnUse" x1="275.206" x2="280.82" xlink:href="#lg11" y1="448.713" y2="461.728"/><linearGradient id="SVGID_45_" gradientUnits="userSpaceOnUse" x1="243.959" x2="248.552" xlink:href="#lg11" y1="485.181" y2="498.706"/><path d="m433.594 455.105-37.424-34.092h-282.34l-37.424 34.092c-12.84 11.696-22.6 26.376-28.419 42.74-2.107 5.925 2.287 12.151 8.576 12.151h396.875c6.289 0 10.682-6.225 8.576-12.151-5.819-16.364-15.58-31.044-28.42-42.74z" fill="url(#SVGID_1_)"/><path d="m453.443 510h-253.291l-24.606-24.618c-1.928-2.694-5.03-6.909-8.948-11.975-.334-.198-52.772-52.389-52.772-52.389h282.346l37.422 34.085c6.414 5.846 12.074 12.445 16.845 19.626 4.77 7.18 8.663 14.942 11.568 23.123 2.114 5.919-2.285 12.148-8.564 12.148z" fill="url(#SVGID_2_)"/><path d="m433.594 455.105-37.424-34.092h-141.17v88.982h198.438c6.289 0 10.682-6.225 8.576-12.15-5.819-16.364-15.58-31.043-28.42-42.74z" fill="url(#SVGID_3_)"/><path d="m453.443 510h-113.551l-68.974-68.393 33.702-20.59h91.553l37.422 34.085c6.414 5.846 12.074 12.445 16.845 19.626.358.544.717 1.1 1.063 1.656.074.099.148.21.198.321.148.198.272.396.395.606 4.029 6.451 7.353 13.335 9.912 20.54 2.113 5.92-2.286 12.149-8.565 12.149z" fill="url(#SVGID_4_)"/><path d="m224.465 496.445-27.44-27.44 16.117-16.117c23.118-23.118 60.6-23.118 83.718 0l16.117 16.117-27.44 27.44c-16.866 16.865-44.208 16.865-61.072 0z" fill="url(#SVGID_5_)"/><path d="m239.086 441.611-58.153 44.56c-1.703 1.305-4.142.95-5.393-.793-8.055-11.229-36.268-49.018-61.71-64.364 0 0 23.503-21.422 56.459-21.422z" fill="url(#SVGID_6_)"/><path d="m270.914 441.611 58.153 44.56c1.703 1.305 4.142.95 5.393-.793 8.055-11.229 36.268-49.018 61.71-64.364 0 0-23.503-21.422-56.46-21.422z" fill="url(#SVGID_7_)"/><circle cx="137.159" cy="229.241" fill="url(#SVGID_8_)" r="40.166"/><circle cx="129.744" cy="237.274" fill="url(#SVGID_9_)" r="29.455"/><circle cx="372.841" cy="229.241" fill="url(#SVGID_10_)" r="40.166"/><circle cx="380.256" cy="237.274" fill="url(#SVGID_11_)" r="29.455"/><path d="m332.675 229.241c0 22.183 17.983 40.166 40.166 40.166s40.166-17.983 40.166-40.166l-40.166-40.166c-22.183.001-40.166 17.983-40.166 40.166z" fill="url(#SVGID_12_)"/><path d="m257.035 396.953h-4.07c-68.868 0-122.668-59.483-115.775-128.006l9.023-89.701c5.458-54.263 51.13-95.571 105.666-95.571h6.241c54.536 0 100.208 41.308 105.666 95.571l9.023 89.701c6.894 68.523-46.906 128.006-115.774 128.006z" fill="url(#SVGID_13_)"/><path d="m257.035 396.953h-4.07c-68.868 0-122.668-59.483-115.775-128.006l9.023-89.701c5.458-54.263 51.13-95.571 105.666-95.571h6.241c54.536 0 100.208 41.308 105.666 95.571l9.023 89.701c6.894 68.523-46.906 128.006-115.774 128.006z" fill="url(#SVGID_14_)"/><path d="m293.932 290.626c-.184.112-.369.223-.555.334-23.568 14.015-53.185 14.015-76.752 0-.186-.111-.371-.222-.555-.334-5.648-3.426-12.449-4.436-18.796-2.603-14.191 4.098-38.248 14.06-53.276 36.739-5.763 8.696-6.712 19.717-2.719 29.355 11.993 28.948 46.1 92.763 113.723 92.763s101.73-63.815 113.723-92.763c3.993-9.638 3.044-20.659-2.719-29.355-15.028-22.679-39.085-32.64-53.276-36.739-6.349-1.834-13.15-.824-18.798 2.603z" fill="url(#SVGID_15_)"/><path d="m290.975 276.278-9.198-68.458h-53.554l-9.198 68.458c-1.298 9.659 4.469 18.984 13.783 21.853 14.435 4.445 29.949 4.445 44.384 0 9.314-2.868 15.081-12.194 13.783-21.853z" fill="url(#SVGID_16_)"/><path d="m400.635 121.486c-9.405 9.059-20.379 12.383-20.379 12.383v25.644c0 6.488-1.001 12.927-2.966 19.106l-10.307 32.367c0-40.685-20.12-43.502-20.12-43.502-23.889-10.06-18.946-43.502-18.946-43.502-37.904 54.378-126.887 26.373-126.887 26.373 0-18.958 18.958-26.373 18.958-26.373-42.477 0-42.662 25.113-42.662 25.545 0 16.388-6.315 32.157-17.648 44.009l-16.659 17.45-8.626-25.508c-4.214-12.421-4.622-25.904-.643-38.398.741-2.311 1.607-4.56 2.632-6.612-12.989 3.016-30.143-2.36-38.411-5.462-2.966-1.1-4.721-4.14-4.214-7.267 2.768-17.228 16.734-70.494 83.569-70.494-9.751-6.587-15.683-15.362-18.798-21.133-1.743-3.213-.395-7.217 2.929-8.713 32.17-14.385 188.853-77.365 197.764 56.281 15.51-10.913 38.312 6.686 43.7 30.081.643 2.794-.222 5.735-2.286 7.725z" fill="url(#SVGID_17_)"/><path d="m327.916 123.983 12.359-29.451-1.305.852c-39.153 25.569-82.76 43.558-128.554 53.03l-9.386 1.942s88.982 28.005 126.886-26.373z" fill="url(#SVGID_18_)"/><path d="m177.325 105.494-14.16-1.607c-21.223-2.409-42.444 4.531-58.143 19.013l-10.283 9.487c.75 1.165 1.852 2.108 3.232 2.62 8.268 3.102 25.422 8.478 38.411 5.462 6.826-12.614 17.312-22.867 30.077-29.407z" fill="url(#SVGID_19_)"/><path d="m400.635 121.486c1.994-1.923 2.856-4.733 2.332-7.44-15.663-6.398-33.031-7.155-33.031-7.155 11.432 12.668 10.32 26.979 10.32 26.979s10.974-3.325 20.379-12.384z" fill="url(#SVGID_20_)"/><path d="m222.887 170.694c-3.925-3.925-10.039-4.281-14.604-1.123-4.138 2.863-9.159 4.54-14.572 4.54s-10.434-1.677-14.572-4.54c-4.564-3.158-10.679-2.802-14.604 1.123l-.696.696c-4.933 4.933-4.229 13.112 1.458 17.153 8.021 5.699 17.825 9.05 28.414 9.05 10.588 0 20.393-3.351 28.414-9.05 5.687-4.041 6.391-12.22 1.458-17.153z" fill="url(#SVGID_21_)"/><path d="m346.161 171.39-.696-.696c-3.925-3.925-10.039-4.281-14.604-1.123-4.138 2.863-9.159 4.54-14.572 4.54s-10.434-1.677-14.572-4.54c-4.564-3.158-10.679-2.802-14.604 1.123l-.696.696c-4.933 4.933-4.229 13.112 1.458 17.153 8.021 5.699 17.825 9.05 28.414 9.05s20.393-3.351 28.414-9.05c5.687-4.04 6.391-12.219 1.458-17.153z" fill="url(#SVGID_22_)"/><path d="m309 431.147c12.651-8.022 23.202-18.354 31.862-29.162l-31.862-31.862z" fill="url(#SVGID_23_)"/><path d="m317.914 228.3c-5.082-1.47-9.191-4.436-11.687-8.01-1.029-1.473-3.299-1.064-3.717.683-.415 1.734-.64 3.576-.64 5.487 0 10.295 6.455 18.641 14.418 18.641 6.639 0 12.227-5.801 13.903-13.696.303-1.427-.958-2.671-2.398-2.438-3.078.497-6.471.319-9.879-.667z" fill="url(#SVGID_24_)"/><path d="m191.851 228.3c5.082-1.47 9.191-4.436 11.687-8.01 1.029-1.473 3.299-1.064 3.717.683.415 1.734.64 3.576.64 5.487 0 10.295-6.455 18.641-14.418 18.641-6.639 0-12.227-5.801-13.903-13.696-.303-1.427.958-2.671 2.398-2.438 3.078.497 6.471.319 9.879-.667z" fill="url(#SVGID_25_)"/><circle cx="403.13" cy="172.667" fill="url(#SVGID_26_)" r="15.655"/><circle cx="103.13" cy="167.448" fill="url(#SVGID_27_)" r="15.655"/><circle cx="406.262" cy="142.779" fill="url(#SVGID_28_)" r="8.91"/><circle cx="87.475" cy="197.593" fill="url(#SVGID_29_)" r="8.91"/><circle cx="437.09" cy="188.321" fill="url(#SVGID_30_)" r="8.91"/><path d="m312.728 288.022c-6.347-1.833-13.148-.823-18.796 2.603-.184.112-.369.223-.555.334-23.568 14.015-53.185 14.015-76.752 0-.186-.111-.371-.222-.555-.334-5.648-3.426-12.449-4.436-18.796-2.603-12.125 3.502-31.449 11.292-46.194 27.63 19.527 17.768 39.717 27.067 51.309 31.352 2.861 1.058 5.817 1.859 8.851 2.178 8.262.869 16.67-1.066 23.8-5.658 12.156-7.83 27.767-7.83 39.923 0 7.13 4.592 15.538 6.527 23.8 5.658 3.034-.319 5.99-1.12 8.851-2.177 11.592-4.285 31.782-13.584 51.309-31.352-14.746-16.339-34.07-24.129-46.195-27.631z" fill="url(#SVGID_31_)"/><path d="m314.16 349.546c.011-.115.015-.176.015-.176l-.024.003c-.186-1.992-2.102-3.808-4.521-2.94l-2.252.809c-10.794 3.874-22.776 2.505-32.417-3.704-12.156-7.83-27.767-7.83-39.923 0-9.641 6.209-21.623 7.579-32.417 3.704l-2.252-.809c-2.938-1.054-5.133 1.846-4.385 4.217 1.043 8.532 9.173 57.126 59.015 57.126h.024c50.077 0 58.047-49.054 59.029-57.244.09-.326.122-.656.108-.986z" fill="url(#SVGID_32_)"/><path d="m309 370.123v139.877h-108v-139.877l1.62.556c10.8 3.708 22.78 2.395 32.42-3.554 6.08-3.746 13.02-5.624 19.96-5.624s13.88 1.878 19.96 5.624c9.64 5.95 21.62 7.262 32.42 3.554z" fill="url(#SVGID_33_)"/><path d="m433.594 455.105-37.424-34.092h-282.34l-37.424 34.092c-12.84 11.696-22.6 26.376-28.419 42.74-2.107 5.925 2.287 12.151 8.576 12.151h396.875c6.289 0 10.682-6.225 8.576-12.151-5.819-16.364-15.58-31.044-28.42-42.74z" fill="url(#SVGID_34_)"/><path d="m309 370.123v139.877h-108v-139.877l1.62.556c10.8 3.708 22.78 2.395 32.42-3.554 6.08-3.746 13.02-5.624 19.96-5.624s13.88 1.878 19.96 5.624c9.64 5.95 21.62 7.262 32.42 3.554z" fill="url(#SVGID_35_)"/><path d="m274.96 367.124c-6.08-3.746-13.02-5.624-19.96-5.624s-13.88 1.878-19.96 5.624c-4.942 3.05-10.499 4.872-16.197 5.433v137.443h72.313v-137.443c-5.697-.561-11.254-2.383-16.196-5.433z" fill="url(#SVGID_36_)"/><path d="m274.96 367.124c-6.08-3.746-13.02-5.624-19.96-5.624s-13.88 1.878-19.96 5.624c-4.942 3.05-10.499 4.872-16.197 5.433v137.443h72.313v-137.443c-5.697-.561-11.254-2.383-16.196-5.433z" fill="url(#SVGID_37_)"/><path d="m255 361.5v148.5h36.157v-137.443c-5.697-.561-11.255-2.383-16.197-5.433-6.08-3.746-13.02-5.624-19.96-5.624z" fill="url(#SVGID_38_)"/><path d="m255 361.5v148.5h36.157v-137.443c-5.697-.561-11.255-2.383-16.197-5.433-6.08-3.746-13.02-5.624-19.96-5.624z" fill="url(#SVGID_39_)"/><circle cx="221.429" cy="416.744" fill="url(#SVGID_40_)" r="11.985"/><circle cx="223.827" cy="393.863" fill="url(#SVGID_41_)" r="6.821"/><circle cx="247.428" cy="428.729" fill="url(#SVGID_42_)" r="6.821"/><circle cx="276.18" cy="479.411" fill="url(#SVGID_43_)" r="11.985"/><circle cx="278.578" cy="456.53" fill="url(#SVGID_44_)" r="6.821"/><circle cx="247.428" cy="495.395" fill="url(#SVGID_45_)" r="6.821"/></svg>